<svg data-v-fde0c5aa="" xmlns="http://www.w3.org/2000/svg" viewBox="0 0 300 300" class="iconAbove"><!----><defs data-v-fde0c5aa=""><linearGradient data-v-fde0c5aa="" gradientTransform="rotate(25)" id="71e5f92f-c3a9-42e2-b456-efa4c5ab9a42" x1="0%" y1="0%" x2="100%" y2="0%"><stop data-v-fde0c5aa="" offset="0%" stop-color="#30223A" stop-opacity="1" data-darkreader-inline-stopcolor="" style="--darkreader-inline-stopcolor:#241a2c;"></stop><stop data-v-fde0c5aa="" offset="100%" stop-color="#F13800" stop-opacity="1" data-darkreader-inline-stopcolor="" style="--darkreader-inline-stopcolor:#b72b00;"></stop></linearGradient></defs><rect data-v-fde0c5aa="" fill="url(#71e5f92f-c3a9-42e2-b456-efa4c5ab9a42)" x="0" y="0" width="300px" height="300px" class="logo-background-square"></rect><defs data-v-fde0c5aa=""><!----></defs><g data-v-fde0c5aa="" id="02bcad6c-f883-42bf-bfd3-a5b2be508462" fill="#ffffff" data-darkreader-inline-fill="" style="--darkreader-inline-fill:#17191a;" transform="matrix(2.1640272332228245,0,0,2.1640272332228245,18.780275561801457,163.2102354903128)"><path d="M9.28 7.22L9.28 7.22L9.28 7.22Q9.14 6.79 8.79 6.43L8.79 6.43L8.79 6.43Q8.43 6.06 7.92 5.81L7.92 5.81L7.92 5.81Q7.42 5.56 6.83 5.43L6.83 5.43L6.83 5.43Q6.23 5.31 5.62 5.35L5.62 5.35L5.62 5.35Q5.01 5.39 4.44 5.62L4.44 5.62L4.44 5.62Q3.86 5.85 3.40 6.30L3.40 6.30L3.40 6.30Q2.88 6.80 2.65 7.42L2.65 7.42L2.65 7.42Q2.42 8.04 2.44 8.67L2.44 8.67L2.44 8.67Q2.45 9.30 2.69 9.89L2.69 9.89L2.69 9.89Q2.94 10.49 3.40 10.95L3.40 10.95L3.40 10.95Q3.85 11.41 4.49 11.69L4.49 11.69L4.49 11.69Q5.12 11.97 5.92 11.97L5.92 11.97L5.92 11.97Q6.87 11.97 7.55 11.56L7.55 11.56L7.55 11.56Q8.22 11.16 8.48 10.30L8.48 10.30L5.89 10.30L5.89 10.30Q5.53 10.30 5.25 10.15L5.25 10.15L5.25 10.15Q4.97 10.00 4.79 9.75L4.79 9.75L4.79 9.75Q4.62 9.51 4.54 9.20L4.54 9.20L4.54 9.20Q4.45 8.89 4.48 8.57L4.48 8.57L10.56 8.57L10.56 8.57Q10.67 9.84 10.28 10.82L10.28 10.82L10.28 10.82Q9.88 11.79 9.18 12.45L9.18 12.45L9.18 12.45Q8.47 13.10 7.55 13.44L7.55 13.44L7.55 13.44Q6.62 13.78 5.68 13.76L5.68 13.76L5.68 13.76Q5.04 13.75 4.40 13.59L4.40 13.59L4.40 13.59Q3.77 13.43 3.19 13.11L3.19 13.11L3.19 13.11Q2.60 12.80 2.11 12.32L2.11 12.32L2.11 12.32Q1.61 11.84 1.26 11.21L1.26 11.21L1.26 11.21Q0.84 10.49 0.68 9.71L0.68 9.71L0.68 9.71Q0.52 8.93 0.58 8.18L0.58 8.18L0.58 8.18Q0.64 7.42 0.92 6.72L0.92 6.72L0.92 6.72Q1.20 6.02 1.67 5.43L1.67 5.43L1.67 5.43Q2.34 4.58 3.39 4.05L3.39 4.05L3.39 4.05Q4.44 3.53 5.80 3.53L5.80 3.53L5.80 3.53Q6.80 3.53 7.71 3.82L7.71 3.82L7.71 3.82Q8.61 4.10 9.18 4.61L9.18 4.61L9.18 4.61Q9.74 5.11 9.83 5.78L9.83 5.78L9.83 5.78Q9.91 6.45 9.28 7.22ZM12.12 13.52L12.12 7.74L12.12 7.74Q12.15 7.32 12.30 7.04L12.30 7.04L12.30 7.04Q12.45 6.76 12.68 6.59L12.68 6.59L12.68 6.59Q12.92 6.43 13.24 6.35L13.24 6.35L13.24 6.35Q13.55 6.27 13.93 6.27L13.93 6.27L13.93 13.52L12.12 13.52ZM13.03 3.29L13.03 3.29L13.03 3.29Q13.51 3.29 13.85 3.64L13.85 3.64L13.85 3.64Q14.20 3.98 14.20 4.47L14.20 4.47L14.20 4.47Q14.20 4.96 13.86 5.31L13.86 5.31L13.86 5.31Q13.66 5.50 13.41 5.58L13.41 5.58L13.41 5.58Q13.15 5.66 12.89 5.73L12.89 5.73L12.89 5.73Q12.63 5.81 12.41 5.92L12.41 5.92L12.41 5.92Q12.19 6.02 12.11 6.26L12.11 6.26L12.11 6.26Q12.04 6.03 11.96 5.68L11.96 5.68L11.96 5.68Q11.89 5.33 11.87 4.96L11.87 4.96L11.87 4.96Q11.84 4.58 11.91 4.22L11.91 4.22L11.91 4.22Q11.97 3.86 12.21 3.63L12.21 3.63L12.21 3.63Q12.54 3.29 13.03 3.29ZM20.85 13.51L20.85 12.74L20.85 12.74Q20.33 13.24 19.72 13.48L19.72 13.48L19.72 13.48Q19.11 13.71 18.49 13.69L18.49 13.69L18.49 13.69Q17.88 13.66 17.30 13.41L17.30 13.41L17.30 13.41Q16.73 13.15 16.29 12.66L16.29 12.66L16.29 12.66Q15.85 12.18 15.58 11.51L15.58 11.51L15.58 11.51Q15.32 10.84 15.32 9.98L15.32 9.98L15.32 9.98Q15.32 9.16 15.60 8.47L15.60 8.47L15.60 8.47Q15.89 7.78 16.37 7.29L16.37 7.29L16.37 7.29Q16.86 6.79 17.47 6.52L17.47 6.52L17.47 6.52Q18.09 6.26 18.76 6.29L18.76 6.29L18.76 6.29Q19.46 6.31 19.86 6.58L19.86 6.58L19.86 6.58Q20.26 6.85 20.43 7.20L20.43 7.20L20.43 7.20Q20.61 7.55 20.60 7.90L20.60 7.90L20.60 7.90Q20.59 8.26 20.47 8.48L20.47 8.48L20.47 8.48Q20.23 8.15 19.80 8.03L19.80 8.03L19.80 8.03Q19.38 7.91 19.00 7.91L19.00 7.91L19.00 7.91Q18.37 7.91 17.94 8.22L17.94 8.22L17.94 8.22Q17.51 8.53 17.30 8.99L17.30 8.99L17.30 8.99Q17.08 9.45 17.08 9.99L17.08 9.99L17.08 9.99Q17.08 10.53 17.29 10.99L17.29 10.99L17.29 10.99Q17.50 11.45 17.92 11.76L17.92 11.76L17.92 11.76Q18.34 12.07 18.98 12.07L18.98 12.07L18.98 12.07Q19.53 12.07 19.89 11.82L19.89 11.82L19.89 11.82Q20.24 11.58 20.45 11.19L20.45 11.19L20.45 11.19Q20.66 10.79 20.76 10.31L20.76 10.31L20.76 10.31Q20.85 9.83 20.85 9.35L20.85 9.35L20.85 3.74L20.85 3.74Q21.67 3.77 22.14 4.19L22.14 4.19L22.14 4.19Q22.61 4.61 22.61 5.17L22.61 5.17L22.61 13.51L20.85 13.51ZM28.95 10.72L28.95 10.72L28.95 10.72Q28.20 10.92 27.57 10.86L27.57 10.86L27.57 10.86Q26.95 10.81 26.55 10.56L26.55 10.56L26.55 10.56Q26.15 10.32 26.02 9.91L26.02 9.91L26.02 9.91Q25.89 9.49 26.10 8.97L26.10 8.97L26.10 8.97Q26.53 9.34 27.10 9.37L27.10 9.37L27.10 9.37Q27.68 9.41 28.21 9.35L28.21 9.35L28.21 9.35Q28.66 9.31 28.89 9.16L28.89 9.16L28.89 9.16Q29.12 9.00 29.18 8.80L29.18 8.80L29.18 8.80Q29.23 8.60 29.13 8.37L29.13 8.37L29.13 8.37Q29.04 8.15 28.82 7.97L28.82 7.97L28.82 7.97Q28.60 7.78 28.29 7.67L28.29 7.67L28.29 7.67Q27.97 7.56 27.59 7.57L27.59 7.57L27.59 7.57Q27.19 7.60 26.82 7.77L26.82 7.77L26.82 7.77Q26.46 7.94 26.18 8.23L26.18 8.23L26.18 8.23Q25.90 8.53 25.73 8.92L25.73 8.92L25.73 8.92Q25.56 9.31 25.55 9.79L25.55 9.79L25.55 9.79Q25.54 10.18 25.64 10.56L25.64 10.56L25.64 10.56Q25.75 10.93 25.96 11.25L25.96 11.25L25.96 11.25Q26.17 11.56 26.46 11.78L26.46 11.78L26.46 11.78Q26.75 12.00 27.13 12.05L27.13 12.05L27.13 12.05Q27.66 12.15 28.22 11.98L28.22 11.98L28.22 11.98Q28.78 11.82 29.22 11.37L29.22 11.37L30.69 12.08L30.69 12.08Q30.11 12.94 29.33 13.31L29.33 13.31L29.33 13.31Q28.55 13.68 27.54 13.68L27.54 13.68L27.54 13.68Q26.60 13.68 25.89 13.35L25.89 13.35L25.89 13.35Q25.19 13.02 24.72 12.47L24.72 12.47L24.72 12.47Q24.25 11.93 24.02 11.24L24.02 11.24L24.02 11.24Q23.79 10.54 23.80 9.82L23.80 9.82L23.80 9.82Q23.81 9.10 24.08 8.41L24.08 8.41L24.08 8.41Q24.35 7.71 24.85 7.18L24.85 7.18L24.85 7.18Q25.41 6.58 26.16 6.33L26.16 6.33L26.16 6.33Q26.91 6.08 27.69 6.08L27.69 6.08L27.69 6.08Q28.56 6.08 29.19 6.37L29.19 6.37L29.19 6.37Q29.82 6.66 30.21 7.12L30.21 7.12L30.21 7.12Q30.60 7.57 30.73 8.13L30.73 8.13L30.73 8.13Q30.86 8.68 30.71 9.20L30.71 9.20L30.71 9.20Q30.56 9.72 30.13 10.13L30.13 10.13L30.13 10.13Q29.69 10.54 28.95 10.72ZM35.50 6.10L35.50 6.10L35.50 6.10Q36.61 6.10 37.47 6.64L37.47 6.64L37.47 6.64Q38.33 7.17 38.82 7.99L38.82 7.99L38.82 7.99Q39.31 8.82 39.35 9.83L39.35 9.83L39.35 9.83Q39.38 10.84 38.84 11.80L38.84 11.80L38.84 11.80Q38.37 12.60 37.63 13.08L37.63 13.08L37.63 13.08Q36.89 13.55 36.05 13.67L36.05 13.67L36.05 13.67Q35.21 13.79 34.36 13.53L34.36 13.53L34.36 13.53Q33.52 13.27 32.84 12.60L32.84 12.60L32.84 12.60Q32.09 11.83 31.84 10.82L31.84 10.82L31.84 10.82Q31.58 9.81 31.88 8.81L31.88 8.81L31.88 8.81Q32.00 8.40 32.29 8.13L32.29 8.13L32.29 8.13Q32.58 7.87 32.94 7.74L32.94 7.74L32.94 7.74Q33.31 7.62 33.70 7.63L33.70 7.63L33.70 7.63Q34.09 7.64 34.43 7.79L34.43 7.79L34.43 7.79Q34.76 7.94 34.99 8.21L34.99 8.21L34.99 8.21Q35.22 8.48 35.27 8.88L35.27 8.88L35.27 8.88Q35.06 8.72 34.76 8.71L34.76 8.71L34.76 8.71Q34.47 8.71 34.20 8.84L34.20 8.84L34.20 8.84Q33.92 8.97 33.73 9.25L33.73 9.25L33.73 9.25Q33.54 9.52 33.54 9.93L33.54 9.93L33.54 9.93Q33.54 10.63 33.84 11.09L33.84 11.09L33.84 11.09Q34.13 11.55 34.57 11.78L34.57 11.78L34.57 11.78Q35.01 12.01 35.53 12.01L35.53 12.01L35.53 12.01Q36.04 12.01 36.48 11.77L36.48 11.77L36.48 11.77Q36.92 11.54 37.21 11.07L37.21 11.07L37.21 11.07Q37.51 10.60 37.51 9.90L37.51 9.90L37.51 9.90Q37.51 9.35 37.31 8.93L37.31 8.93L37.31 8.93Q37.11 8.51 36.79 8.24L36.79 8.24L36.79 8.24Q36.46 7.97 36.02 7.86L36.02 7.86L36.02 7.86Q35.59 7.76 35.10 7.85L35.10 7.85L35.10 7.85Q34.89 7.60 34.59 7.46L34.59 7.46L34.59 7.46Q34.29 7.31 33.94 7.26L33.94 7.26L33.94 7.26Q33.59 7.21 33.24 7.27L33.24 7.27L33.24 7.27Q32.89 7.34 32.58 7.52L32.58 7.52L32.58 7.52Q33.14 6.85 33.88 6.48L33.88 6.48L33.88 6.48Q34.62 6.10 35.50 6.10ZM42.28 6.27L42.28 7.11L42.28 7.11Q42.39 6.86 42.62 6.68L42.62 6.68L42.62 6.68Q42.85 6.50 43.13 6.37L43.13 6.37L43.13 6.37Q43.41 6.24 43.71 6.17L43.71 6.17L43.71 6.17Q44.00 6.10 44.25 6.09L44.25 6.09L44.25 6.09Q44.79 6.06 45.30 6.24L45.30 6.24L45.30 6.24Q45.82 6.41 46.26 6.85L46.26 6.85L46.26 6.85Q46.89 7.50 46.89 8.74L46.89 8.74L46.89 13.52L45.09 13.52L45.09 13.52Q45.09 13.29 45.10 12.88L45.10 12.88L45.10 12.88Q45.11 12.47 45.11 11.99L45.11 11.99L45.11 11.99Q45.11 11.51 45.11 10.99L45.11 10.99L45.11 10.99Q45.11 10.47 45.09 10.01L45.09 10.01L45.09 10.01Q45.08 9.55 45.05 9.18L45.05 9.18L45.05 9.18Q45.02 8.82 44.98 8.65L44.98 8.65L44.98 8.65Q44.87 8.20 44.55 7.98L44.55 7.98L44.55 7.98Q44.24 7.76 43.88 7.76L43.88 7.76L43.88 7.76Q43.40 7.76 43.13 8.02L43.13 8.02L43.13 8.02Q42.87 8.27 42.87 8.69L42.87 8.69L42.87 8.69Q42.70 8.64 42.53 8.46L42.53 8.46L42.53 8.46Q42.36 8.29 42.28 8.09L42.28 8.09L42.28 8.47L42.28 13.52L40.47 13.52L40.47 6.27L42.28 6.27ZM53.97 3.72L53.97 3.72L58.90 3.72L54.88 11.72L58.66 11.72L58.66 13.52L51.74 13.52L55.83 5.57L54.12 5.57L54.12 5.57Q53.82 5.57 53.56 5.58L53.56 5.58L53.56 5.58Q53.30 5.59 53.07 5.65L53.07 5.65L53.07 5.65Q52.85 5.71 52.66 5.85L52.66 5.85L52.66 5.85Q52.47 5.99 52.30 6.27L52.30 6.27L52.30 6.27Q51.93 5.71 51.93 5.24L51.93 5.24L51.93 5.24Q51.94 4.77 52.21 4.44L52.21 4.44L52.21 4.44Q52.49 4.10 52.96 3.91L52.96 3.91L52.96 3.91Q53.44 3.72 53.97 3.72ZM63.81 6.10L63.81 6.10L63.81 6.10Q64.92 6.10 65.78 6.64L65.78 6.64L65.78 6.64Q66.64 7.17 67.13 7.99L67.13 7.99L67.13 7.99Q67.62 8.82 67.66 9.83L67.66 9.83L67.66 9.83Q67.69 10.84 67.14 11.80L67.14 11.80L67.14 11.80Q66.68 12.60 65.94 13.08L65.94 13.08L65.94 13.08Q65.20 13.55 64.36 13.67L64.36 13.67L64.36 13.67Q63.52 13.79 62.67 13.53L62.67 13.53L62.67 13.53Q61.82 13.27 61.15 12.60L61.15 12.60L61.15 12.60Q60.40 11.83 60.14 10.82L60.14 10.82L60.14 10.82Q59.89 9.81 60.19 8.81L60.19 8.81L60.19 8.81Q60.31 8.40 60.60 8.13L60.60 8.13L60.60 8.13Q60.89 7.87 61.25 7.74L61.25 7.74L61.25 7.74Q61.61 7.62 62.01 7.63L62.01 7.63L62.01 7.63Q62.40 7.64 62.73 7.79L62.73 7.79L62.73 7.79Q63.07 7.94 63.30 8.21L63.30 8.21L63.30 8.21Q63.53 8.48 63.57 8.88L63.57 8.88L63.57 8.88Q63.36 8.72 63.07 8.71L63.07 8.71L63.07 8.71Q62.78 8.71 62.50 8.84L62.50 8.84L62.50 8.84Q62.23 8.97 62.04 9.25L62.04 9.25L62.04 9.25Q61.85 9.52 61.85 9.93L61.85 9.93L61.85 9.93Q61.85 10.63 62.15 11.09L62.15 11.09L62.15 11.09Q62.44 11.55 62.88 11.78L62.88 11.78L62.88 11.78Q63.32 12.01 63.83 12.01L63.83 12.01L63.83 12.01Q64.34 12.01 64.78 11.77L64.78 11.77L64.78 11.77Q65.23 11.54 65.52 11.07L65.52 11.07L65.52 11.07Q65.81 10.60 65.81 9.90L65.81 9.90L65.81 9.90Q65.81 9.35 65.62 8.93L65.62 8.93L65.62 8.93Q65.42 8.51 65.09 8.24L65.09 8.24L65.09 8.24Q64.76 7.97 64.33 7.86L64.33 7.86L64.33 7.86Q63.90 7.76 63.41 7.85L63.41 7.85L63.41 7.85Q63.20 7.60 62.89 7.46L62.89 7.46L62.89 7.46Q62.59 7.31 62.24 7.26L62.24 7.26L62.24 7.26Q61.89 7.21 61.54 7.27L61.54 7.27L61.54 7.27Q61.19 7.34 60.89 7.52L60.89 7.52L60.89 7.52Q61.45 6.85 62.19 6.48L62.19 6.48L62.19 6.48Q62.93 6.10 63.81 6.10ZM74.03 13.51L74.03 12.74L74.03 12.74Q73.51 13.24 72.91 13.48L72.91 13.48L72.91 13.48Q72.30 13.71 71.68 13.69L71.68 13.69L71.68 13.69Q71.06 13.66 70.49 13.41L70.49 13.41L70.49 13.41Q69.92 13.15 69.47 12.66L69.47 12.66L69.47 12.66Q69.03 12.18 68.77 11.51L68.77 11.51L68.77 11.51Q68.50 10.84 68.50 9.98L68.50 9.98L68.50 9.98Q68.50 9.16 68.79 8.47L68.79 8.47L68.79 8.47Q69.08 7.78 69.56 7.29L69.56 7.29L69.56 7.29Q70.04 6.79 70.66 6.52L70.66 6.52L70.66 6.52Q71.27 6.26 71.95 6.29L71.95 6.29L71.95 6.29Q72.65 6.31 73.04 6.58L73.04 6.58L73.04 6.58Q73.44 6.85 73.62 7.20L73.62 7.20L73.62 7.20Q73.79 7.55 73.79 7.90L73.79 7.90L73.79 7.90Q73.78 8.26 73.65 8.48L73.65 8.48L73.65 8.48Q73.42 8.15 72.99 8.03L72.99 8.03L72.99 8.03Q72.56 7.91 72.18 7.91L72.18 7.91L72.18 7.91Q71.55 7.91 71.13 8.22L71.13 8.22L71.13 8.22Q70.70 8.53 70.48 8.99L70.48 8.99L70.48 8.99Q70.27 9.45 70.27 9.99L70.27 9.99L70.27 9.99Q70.27 10.53 70.48 10.99L70.48 10.99L70.48 10.99Q70.69 11.45 71.11 11.76L71.11 11.76L71.11 11.76Q71.53 12.07 72.17 12.07L72.17 12.07L72.17 12.07Q72.72 12.07 73.07 11.82L73.07 11.82L73.07 11.82Q73.43 11.58 73.64 11.19L73.64 11.19L73.64 11.19Q73.85 10.79 73.94 10.31L73.94 10.31L73.94 10.31Q74.03 9.83 74.03 9.35L74.03 9.35L74.03 3.74L74.03 3.74Q74.86 3.77 75.33 4.19L75.33 4.19L75.33 4.19Q75.80 4.61 75.80 5.17L75.80 5.17L75.80 13.51L74.03 13.51ZM82.24 3.72L82.24 3.72L84.39 3.72L84.39 3.72Q85.53 3.72 86.24 4.24L86.24 4.24L86.24 4.24Q86.95 4.75 87.28 5.51L87.28 5.51L87.28 5.51Q87.61 6.27 87.56 7.16L87.56 7.16L87.56 7.16Q87.51 8.05 87.14 8.81L87.14 8.81L87.14 8.81Q86.76 9.58 86.06 10.09L86.06 10.09L86.06 10.09Q85.36 10.60 84.38 10.60L84.38 10.60L84.38 10.60Q83.64 10.60 83.24 10.35L83.24 10.35L83.24 10.35Q82.84 10.11 82.70 9.77L82.70 9.77L82.70 9.77Q82.56 9.42 82.63 9.04L82.63 9.04L82.63 9.04Q82.70 8.67 82.89 8.39L82.89 8.39L82.89 8.39Q82.96 8.54 83.16 8.62L83.16 8.62L83.16 8.62Q83.36 8.71 83.60 8.75L83.60 8.75L83.60 8.75Q83.85 8.79 84.08 8.79L84.08 8.79L84.08 8.79Q84.32 8.79 84.48 8.76L84.48 8.76L84.48 8.76Q84.85 8.69 85.13 8.43L85.13 8.43L85.13 8.43Q85.40 8.16 85.53 7.81L85.53 7.81L85.53 7.81Q85.67 7.45 85.67 7.05L85.67 7.05L85.67 7.05Q85.67 6.65 85.50 6.31L85.50 6.31L85.50 6.31Q85.34 5.98 85.00 5.76L85.00 5.76L85.00 5.76Q84.66 5.54 84.13 5.54L84.13 5.54L82.54 5.54L82.54 13.52L80.70 13.52L80.70 5.45L80.70 5.45Q80.70 4.68 81.05 4.20L81.05 4.20L81.05 4.20Q81.40 3.72 82.24 3.72ZM93.63 10.72L93.63 10.72L93.63 10.72Q92.88 10.92 92.25 10.86L92.25 10.86L92.25 10.86Q91.63 10.81 91.23 10.56L91.23 10.56L91.23 10.56Q90.83 10.32 90.70 9.91L90.70 9.91L90.70 9.91Q90.57 9.49 90.78 8.97L90.78 8.97L90.78 8.97Q91.21 9.34 91.78 9.37L91.78 9.37L91.78 9.37Q92.36 9.41 92.89 9.35L92.89 9.35L92.89 9.35Q93.34 9.31 93.57 9.16L93.57 9.16L93.57 9.16Q93.80 9.00 93.86 8.80L93.86 8.80L93.86 8.80Q93.91 8.60 93.81 8.37L93.81 8.37L93.81 8.37Q93.72 8.15 93.50 7.97L93.50 7.97L93.50 7.97Q93.28 7.78 92.97 7.67L92.97 7.67L92.97 7.67Q92.65 7.56 92.27 7.57L92.27 7.57L92.27 7.57Q91.87 7.60 91.50 7.77L91.50 7.77L91.50 7.77Q91.14 7.94 90.86 8.23L90.86 8.23L90.86 8.23Q90.58 8.53 90.41 8.92L90.41 8.92L90.41 8.92Q90.24 9.31 90.23 9.79L90.23 9.79L90.23 9.79Q90.22 10.18 90.32 10.56L90.32 10.56L90.32 10.56Q90.43 10.93 90.64 11.25L90.64 11.25L90.64 11.25Q90.85 11.56 91.14 11.78L91.14 11.78L91.14 11.78Q91.43 12.00 91.81 12.05L91.81 12.05L91.81 12.05Q92.34 12.15 92.90 11.98L92.90 11.98L92.90 11.98Q93.46 11.82 93.90 11.37L93.90 11.37L95.37 12.08L95.37 12.08Q94.79 12.94 94.01 13.31L94.01 13.31L94.01 13.31Q93.23 13.68 92.22 13.68L92.22 13.68L92.22 13.68Q91.28 13.68 90.57 13.35L90.57 13.35L90.57 13.35Q89.87 13.02 89.40 12.47L89.40 12.47L89.40 12.47Q88.93 11.93 88.70 11.24L88.70 11.24L88.70 11.24Q88.47 10.54 88.48 9.82L88.48 9.82L88.48 9.82Q88.49 9.10 88.76 8.41L88.76 8.41L88.76 8.41Q89.03 7.71 89.53 7.18L89.53 7.18L89.53 7.18Q90.09 6.58 90.84 6.33L90.84 6.33L90.84 6.33Q91.59 6.08 92.37 6.08L92.37 6.08L92.37 6.08Q93.24 6.08 93.87 6.37L93.87 6.37L93.87 6.37Q94.50 6.66 94.89 7.12L94.89 7.12L94.89 7.12Q95.28 7.57 95.41 8.13L95.41 8.13L95.41 8.13Q95.54 8.68 95.39 9.20L95.39 9.20L95.39 9.20Q95.24 9.72 94.81 10.13L94.81 10.13L94.81 10.13Q94.37 10.54 93.63 10.72ZM97.43 6.33L97.43 5.15L97.43 5.15Q97.43 4.76 97.57 4.49L97.57 4.49L97.57 4.49Q97.72 4.21 97.97 4.05L97.97 4.05L97.97 4.05Q98.21 3.88 98.53 3.80L98.53 3.80L98.53 3.80Q98.85 3.72 99.19 3.72L99.19 3.72L99.19 6.33L100.81 6.33L100.81 6.33Q100.81 6.61 100.77 6.87L100.77 6.87L100.77 6.87Q100.72 7.14 100.58 7.36L100.58 7.36L100.58 7.36Q100.44 7.57 100.20 7.71L100.20 7.71L100.20 7.71Q99.96 7.84 99.58 7.84L99.58 7.84L99.19 7.84L99.19 11.80L99.19 11.80Q99.19 12.03 99.36 12.12L99.36 12.12L99.36 12.12Q99.53 12.21 99.75 12.20L99.75 12.20L99.75 12.20Q99.97 12.19 100.20 12.10L100.20 12.10L100.20 12.10Q100.42 12.00 100.52 11.83L100.52 11.83L100.52 11.83Q100.70 12.29 100.54 12.65L100.54 12.65L100.54 12.65Q100.38 13.01 100.04 13.22L100.04 13.22L100.04 13.22Q99.69 13.44 99.24 13.50L99.24 13.50L99.24 13.50Q98.78 13.57 98.39 13.43L98.39 13.43L98.39 13.43Q97.99 13.30 97.71 12.96L97.71 12.96L97.71 12.96Q97.43 12.61 97.43 12.03L97.43 12.03L97.43 7.84L96.53 7.84L96.53 6.33L97.43 6.33ZM106.88 10.72L106.88 10.72L106.88 10.72Q106.12 10.92 105.50 10.86L105.50 10.86L105.50 10.86Q104.87 10.81 104.47 10.56L104.47 10.56L104.47 10.56Q104.08 10.32 103.94 9.91L103.94 9.91L103.94 9.91Q103.81 9.49 104.02 8.97L104.02 8.97L104.02 8.97Q104.45 9.34 105.03 9.37L105.03 9.37L105.03 9.37Q105.60 9.41 106.13 9.35L106.13 9.35L106.13 9.35Q106.58 9.31 106.81 9.16L106.81 9.16L106.81 9.16Q107.04 9.00 107.10 8.80L107.10 8.80L107.10 8.80Q107.16 8.60 107.06 8.37L107.06 8.37L107.06 8.37Q106.96 8.15 106.74 7.97L106.74 7.97L106.74 7.97Q106.53 7.78 106.21 7.67L106.21 7.67L106.21 7.67Q105.90 7.56 105.52 7.57L105.52 7.57L105.52 7.57Q105.11 7.60 104.75 7.77L104.75 7.77L104.75 7.77Q104.38 7.94 104.10 8.23L104.10 8.23L104.10 8.23Q103.82 8.53 103.66 8.92L103.66 8.92L103.66 8.92Q103.49 9.31 103.47 9.79L103.47 9.79L103.47 9.79Q103.46 10.18 103.56 10.56L103.56 10.56L103.56 10.56Q103.67 10.93 103.88 11.25L103.88 11.25L103.88 11.25Q104.09 11.56 104.38 11.78L104.38 11.78L104.38 11.78Q104.68 12.00 105.06 12.05L105.06 12.05L105.06 12.05Q105.59 12.15 106.15 11.98L106.15 11.98L106.15 11.98Q106.71 11.82 107.14 11.37L107.14 11.37L108.61 12.08L108.61 12.08Q108.04 12.94 107.25 13.31L107.25 13.31L107.25 13.31Q106.47 13.68 105.46 13.68L105.46 13.68L105.46 13.68Q104.52 13.68 103.82 13.35L103.82 13.35L103.82 13.35Q103.11 13.02 102.64 12.47L102.64 12.47L102.64 12.47Q102.17 11.93 101.94 11.24L101.94 11.24L101.94 11.24Q101.71 10.54 101.72 9.82L101.72 9.82L101.72 9.82Q101.74 9.10 102.00 8.41L102.00 8.41L102.00 8.41Q102.27 7.71 102.77 7.18L102.77 7.18L102.77 7.18Q103.33 6.58 104.08 6.33L104.08 6.33L104.08 6.33Q104.83 6.08 105.62 6.08L105.62 6.08L105.62 6.08Q106.48 6.08 107.11 6.37L107.11 6.37L107.11 6.37Q107.74 6.66 108.14 7.12L108.14 7.12L108.14 7.12Q108.53 7.57 108.65 8.13L108.65 8.13L108.65 8.13Q108.78 8.68 108.63 9.20L108.63 9.20L108.63 9.20Q108.49 9.72 108.05 10.13L108.05 10.13L108.05 10.13Q107.62 10.54 106.88 10.72ZM109.91 13.52L109.91 6.24L111.48 6.24L111.48 7.17L111.48 7.17Q111.72 6.68 112.09 6.39L112.09 6.39L112.09 6.39Q112.46 6.10 112.91 6.08L112.91 6.08L112.91 6.08Q113.50 6.03 113.86 6.29L113.86 6.29L113.86 6.29Q114.23 6.55 114.37 6.92L114.37 6.92L114.37 6.92Q114.52 7.29 114.45 7.68L114.45 7.68L114.45 7.68Q114.38 8.06 114.07 8.29L114.07 8.29L114.07 8.29Q113.95 7.94 113.59 7.83L113.59 7.83L113.59 7.83Q113.23 7.73 112.84 7.86L112.84 7.86L112.84 7.86Q112.45 7.99 112.13 8.36L112.13 8.36L112.13 8.36Q111.82 8.72 111.76 9.31L111.76 9.31L111.76 9.31Q111.73 9.65 111.73 9.98L111.73 9.98L111.73 9.98Q111.73 10.30 111.73 10.58L111.73 10.58L111.73 13.52L109.91 13.52ZM119.48 8.50L119.48 8.50L119.48 8.50Q119.36 8.23 119.17 8.07L119.17 8.07L119.17 8.07Q118.97 7.91 118.74 7.83L118.74 7.83L118.74 7.83Q118.51 7.74 118.29 7.74L118.29 7.74L118.29 7.74Q118.08 7.73 117.94 7.78L117.94 7.78L117.94 7.78Q117.68 7.87 117.61 8.07L117.61 8.07L117.61 8.07Q117.53 8.27 117.68 8.46L117.68 8.46L117.68 8.46Q117.81 8.60 118.08 8.73L118.08 8.73L118.08 8.73Q118.36 8.86 118.69 9.02L118.69 9.02L118.69 9.02Q119.03 9.18 119.38 9.39L119.38 9.39L119.38 9.39Q119.74 9.59 120.04 9.87L120.04 9.87L120.04 9.87Q120.33 10.15 120.52 10.53L120.52 10.53L120.52 10.53Q120.71 10.91 120.71 11.42L120.71 11.42L120.71 11.42Q120.71 12.03 120.44 12.48L120.44 12.48L120.44 12.48Q120.18 12.94 119.73 13.22L119.73 13.22L119.73 13.22Q119.29 13.50 118.74 13.60L118.74 13.60L118.74 13.60Q118.19 13.71 117.62 13.62L117.62 13.62L117.62 13.62Q117.05 13.54 116.52 13.24L116.52 13.24L116.52 13.24Q115.99 12.94 115.60 12.42L115.60 12.42L116.72 11.21L116.72 11.21Q117.07 11.63 117.45 11.82L117.45 11.82L117.45 11.82Q117.84 12.00 118.17 12.02L118.17 12.02L118.17 12.02Q118.50 12.04 118.72 11.92L118.72 11.92L118.72 11.92Q118.94 11.80 118.99 11.60L118.99 11.60L118.99 11.60Q119.04 11.40 118.87 11.15L118.87 11.15L118.87 11.15Q118.71 10.91 118.23 10.67L118.23 10.67L118.23 10.67Q117.78 10.44 117.36 10.21L117.36 10.21L117.36 10.21Q116.93 9.97 116.60 9.67L116.60 9.67L116.60 9.67Q116.27 9.38 116.07 9.02L116.07 9.02L116.07 9.02Q115.86 8.65 115.86 8.16L115.86 8.16L115.86 8.16Q115.86 7.66 116.07 7.27L116.07 7.27L116.07 7.27Q116.28 6.87 116.63 6.61L116.63 6.61L116.63 6.61Q116.98 6.34 117.43 6.22L117.43 6.22L117.43 6.22Q117.88 6.09 118.36 6.10L118.36 6.10L118.36 6.10Q119.17 6.15 119.59 6.46L119.59 6.46L119.59 6.46Q120.02 6.78 120.13 7.18L120.13 7.18L120.13 7.18Q120.23 7.57 120.06 7.95L120.06 7.95L120.06 7.95Q119.88 8.33 119.48 8.50Z"></path></g><defs data-v-fde0c5aa=""><!----></defs><g data-v-fde0c5aa="" id="c7c2f797-6d82-4e77-a698-4c345ef08492" stroke="none" fill="#ffffff" data-darkreader-inline-fill="" data-darkreader-inline-stroke="" style="--darkreader-inline-fill:#17191a; --darkreader-inline-stroke:none;" transform="matrix(0.5664942502532413,0,0,0.5664942502532413,122.83635607469664,102.4783909827796)"><path d="M48 43.3c9.7 0 17.7-7.9 17.7-17.7C65.7 15.9 57.7 8 48 8s-17.7 7.9-17.7 17.7c0 9.7 8 17.6 17.7 17.6zM63.4 44.3c-.6 0-1.1.2-1.5.6-3.7 3.6-8.7 5.6-13.9 5.6s-10.1-2-13.9-5.6c-.4-.4-1-.6-1.5-.6-10.9.8-19.5 10-19.5 21V75c0 7.2 5.8 13 13 13h43.7c7.2 0 13-5.8 13-13v-9.7c.1-11-8.5-20.2-19.4-21zM39.7 72.6c.8.8.8 2 0 2.8-.4.4-.9.6-1.4.6s-1-.2-1.4-.6l-5.1-5.1c-.8-.8-.8-2 0-2.8l5.1-5.1c.8-.8 2-.8 2.8 0 .8.8.8 2.1 0 2.9L36 69l3.7 3.6zm13.4-13l-5.6 19.9c-.2.9-1 1.5-1.9 1.5-.1 0-.3 0-.5-.1-1.1-.3-1.7-1.4-1.4-2.5l5.6-19.9c.3-1.1 1.4-1.7 2.5-1.4 1 .3 1.6 1.4 1.3 2.5zm11.1 10.8l-5.1 5.1c-.4.4-.9.6-1.4.6s-1-.2-1.4-.6c-.8-.8-.8-2 0-2.8L60 69l-3.7-3.8c-.8-.8-.8-2 0-2.8.8-.8 2-.8 2.8 0l5.1 5.2c.8.8.8 2 0 2.8z"></path></g><!----></svg>